<svg xmlns="http://www.w3.org/2000/svg" viewBox="0 0 32 32" fill="none">
  <defs>
    <linearGradient id="purpleGradient" x1="0%" y1="0%" x2="100%" y2="100%">
      <stop offset="0%" style="stop-color:#8B5CF6;stop-opacity:1" />
      <stop offset="100%" style="stop-color:#6366F1;stop-opacity:1" />
    </linearGradient>
  </defs>
  
  <!-- Lightbulb body -->
  <path d="M16 2C12.134 2 9 5.134 9 9c0 2.5 1.5 4.5 3 6v3c0 1.1.9 2 2 2h4c1.1 0 2-.9 2-2v-3c1.5-1.5 3-3.5 3-6 0-3.866-3.134-7-7-7z" fill="url(#purpleGradient)"/>
  
  <!-- Base/screw threads -->
  <rect x="12" y="18" width="8" height="1" fill="#6366F1" opacity="0.8"/>
  <rect x="12" y="20" width="8" height="1" fill="#6366F1" opacity="0.6"/>
  
  <!-- Highlight/shine -->
  <ellipse cx="13" cy="7" rx="2" ry="3" fill="white" opacity="0.3"/>
  
  <!-- Contact point -->
  <rect x="15" y="22" width="2" height="2" rx="1" fill="#4C1D95"/>
</svg>